v 0.000000 1.000000 0.000000
v 0.149042 0.988831 0.000000
v 0.144360 0.988831 0.037065
v 0.130607 0.988831 0.071802
v 0.108647 0.988831 0.102026
v 0.079861 0.988831 0.125841
v 0.046057 0.988831 0.141748
v 0.009358 0.988831 0.148748
v -0.027928 0.988831 0.146402
v -0.063459 0.988831 0.134857
v -0.095003 0.988831 0.114839
v -0.120578 0.988831 0.087605
v -0.138576 0.988831 0.054866
v -0.147867 0.988831 0.018680
v -0.147867 0.988831 -0.018680
v -0.138576 0.988831 -0.054866
v -0.120578 0.988831 -0.087605
v -0.095003 0.988831 -0.114839
v -0.063459 0.988831 -0.134857
v -0.027928 0.988831 -0.146402
v 0.009358 0.988831 -0.148748
v 0.046057 0.988831 -0.141748
v 0.079861 0.988831 -0.125841
v 0.108647 0.988831 -0.102026
v 0.130607 0.988831 -0.071802
v 0.144360 0.988831 -0.037065
v 0.294755 0.955573 0.000000
v 0.285495 0.955573 0.073303
v 0.258296 0.955573 0.141999
v 0.214867 0.955573 0.201774
v 0.157938 0.955573 0.248870
v 0.091084 0.955573 0.280329
v 0.018508 0.955573 0.294174
v -0.055232 0.955573 0.289534
v -0.125501 0.955573 0.266702
v -0.187884 0.955573 0.227113
v -0.238462 0.955573 0.173253
v -0.274056 0.955573 0.108507
v -0.292431 0.955573 0.036943
v -0.292431 0.955573 -0.036943
v -0.274056 0.955573 -0.108507
v -0.238462 0.955573 -0.173253
v -0.187884 0.955573 -0.227113
v -0.125501 0.955573 -0.266702
v -0.055232 0.955573 -0.289534
v 0.018508 0.955573 -0.294174
v 0.091084 0.955573 -0.280329
v 0.157938 0.955573 -0.248870
v 0.214867 0.955573 -0.201774
v 0.258296 0.955573 -0.141999
v 0.285495 0.955573 -0.073303
v 0.433884 0.900969 0.000000
v 0.420252 0.900969 0.107902
v 0.380215 0.900969 0.209025
v 0.316288 0.900969 0.297014
v 0.232487 0.900969 0.366340
v 0.134077 0.900969 0.412648
v 0.027244 0.900969 0.433028
v -0.081302 0.900969 0.426198
v -0.184739 0.900969 0.392590
v -0.276568 0.900969 0.334313
v -0.351019 0.900969 0.255030
v -0.403415 0.900969 0.159723
v -0.430462 0.900969 0.054380
v -0.430462 0.900969 -0.054380
v -0.403415 0.900969 -0.159723
v -0.351019 0.900969 -0.255030
v -0.276568 0.900969 -0.334313
v -0.184739 0.900969 -0.392590
v -0.081302 0.900969 -0.426198
v 0.027244 0.900969 -0.433028
v 0.134077 0.900969 -0.412648
v 0.232487 0.900969 -0.366340
v 0.316288 0.900969 -0.297014
v 0.380215 0.900969 -0.209025
v 0.420252 0.900969 -0.107902
v 0.563320 0.826239 0.000000
v 0.545622 0.826239 0.140092
v 0.493641 0.826239 0.271382
v 0.410643 0.826239 0.385619
v 0.301842 0.826239 0.475627
v 0.174075 0.826239 0.535749
v 0.035371 0.826239 0.562208
v -0.105556 0.826239 0.553342
v -0.239850 0.826239 0.509707
v -0.359074 0.826239 0.434046
v -0.455736 0.826239 0.331111
v -0.523762 0.826239 0.207372
v -0.558878 0.826239 0.070603
v -0.558878 0.826239 -0.070603
v -0.523762 0.826239 -0.207372
v -0.455736 0.826239 -0.331111
v -0.359074 0.826239 -0.434046
v -0.239850 0.826239 -0.509707
v -0.105556 0.826239 -0.553342
v 0.035371 0.826239 -0.562208
v 0.174075 0.826239 -0.535749
v 0.301842 0.826239 -0.475627
v 0.410643 0.826239 -0.385619
v 0.493641 0.826239 -0.271382
v 0.545622 0.826239 -0.140092
v 0.680173 0.733052 0.000000
v 0.658804 0.733052 0.169152
v 0.596040 0.733052 0.327676
v 0.495825 0.733052 0.465610
v 0.364455 0.733052 0.574289
v 0.210185 0.733052 0.646883
v 0.042708 0.733052 0.678831
v -0.127452 0.733052 0.668125
v -0.289603 0.733052 0.615439
v -0.433558 0.733052 0.524082
v -0.550271 0.733052 0.399796
v -0.632409 0.733052 0.250388
v -0.674809 0.733052 0.085248
v -0.674809 0.733052 -0.085248
v -0.632409 0.733052 -0.250388
v -0.550271 0.733052 -0.399796
v -0.433558 0.733052 -0.524082
v -0.289603 0.733052 -0.615439
v -0.127452 0.733052 -0.668125
v 0.042708 0.733052 -0.678831
v 0.210185 0.733052 -0.646883
v 0.364455 0.733052 -0.574289
v 0.495825 0.733052 -0.465610
v 0.596040 0.733052 -0.327676
v 0.658804 0.733052 -0.169152
v 0.781831 0.623490 0.000000
v 0.757269 0.623490 0.194434
v 0.685124 0.623490 0.376650
v 0.569931 0.623490 0.535200
v 0.418926 0.623490 0.660122
v 0.241599 0.623490 0.743566
v 0.049092 0.623490 0.780289
v -0.146501 0.623490 0.767983
v -0.332888 0.623490 0.707422
v -0.498358 0.623490 0.602412
v -0.632515 0.623490 0.459549
v -0.726929 0.623490 0.287811
v -0.775667 0.623490 0.097989
v -0.775667 0.623490 -0.097989
v -0.726929 0.623490 -0.287811
v -0.632515 0.623490 -0.459549
v -0.498358 0.623490 -0.602412
v -0.332888 0.623490 -0.707422
v -0.146501 0.623490 -0.767983
v 0.049092 0.623490 -0.780289
v 0.241599 0.623490 -0.743566
v 0.418926 0.623490 -0.660122
v 0.569931 0.623490 -0.535200
v 0.685124 0.623490 -0.376650
v 0.757269 0.623490 -0.194434
v 0.866025 0.500000 0.000000
v 0.838818 0.500000 0.215372
v 0.758904 0.500000 0.417211
v 0.631305 0.500000 0.592835
v 0.464040 0.500000 0.731209
v 0.267617 0.500000 0.823639
v 0.054378 0.500000 0.864317
v -0.162277 0.500000 0.850686
v -0.368736 0.500000 0.783603
v -0.552025 0.500000 0.667284
v -0.700629 0.500000 0.509037
v -0.805210 0.500000 0.318805
v -0.859197 0.500000 0.108542
v -0.859197 0.500000 -0.108542
v -0.805210 0.500000 -0.318805
v -0.700629 0.500000 -0.509037
v -0.552025 0.500000 -0.667284
v -0.368736 0.500000 -0.783603
v -0.162277 0.500000 -0.850686
v 0.054378 0.500000 -0.864317
v 0.267617 0.500000 -0.823639
v 0.464040 0.500000 -0.731209
v 0.631305 0.500000 -0.592835
v 0.758904 0.500000 -0.417211
v 0.838818 0.500000 -0.215372
v 0.930874 0.365341 0.000000
v 0.901629 0.365341 0.231499
v 0.815731 0.365341 0.448452
v 0.678578 0.365341 0.637227
v 0.498787 0.365341 0.785963
v 0.287656 0.365341 0.885314
v 0.058450 0.365341 0.929037
v -0.174428 0.365341 0.914385
v -0.396347 0.365341 0.842280
v -0.593361 0.365341 0.717251
v -0.753093 0.365341 0.547154
v -0.865505 0.365341 0.342677
v -0.923534 0.365341 0.116669
v -0.923534 0.365341 -0.116669
v -0.865505 0.365341 -0.342677
v -0.753093 0.365341 -0.547154
v -0.593361 0.365341 -0.717251
v -0.396347 0.365341 -0.842280
v -0.174428 0.365341 -0.914385
v 0.058450 0.365341 -0.929037
v 0.287656 0.365341 -0.885314
v 0.498787 0.365341 -0.785963
v 0.678578 0.365341 -0.637227
v 0.815731 0.365341 -0.448452
v 0.901629 0.365341 -0.231499
v 0.974928 0.222521 0.000000
v 0.944299 0.222521 0.242455
v 0.854336 0.222521 0.469675
v 0.710692 0.222521 0.667384
v 0.522392 0.222521 0.823159
v 0.301269 0.222521 0.927212
v 0.061216 0.222521 0.973004
v -0.182683 0.222521 0.957659
v -0.415104 0.222521 0.882141
v -0.621442 0.222521 0.751195
v -0.788733 0.222521 0.573048
v -0.906465 0.222521 0.358895
v -0.967240 0.222521 0.122191
v -0.967240 0.222521 -0.122191
v -0.906465 0.222521 -0.358895
v -0.788733 0.222521 -0.573048
v -0.621442 0.222521 -0.751195
v -0.415104 0.222521 -0.882141
v -0.182683 0.222521 -0.957659
v 0.061216 0.222521 -0.973004
v 0.301269 0.222521 -0.927212
v 0.522392 0.222521 -0.823159
v 0.710692 0.222521 -0.667384
v 0.854336 0.222521 -0.469675
v 0.944299 0.222521 -0.242455
v 0.997204 0.074730 0.000000
v 0.965875 0.074730 0.247994
v 0.873856 0.074730 0.480407
v 0.726930 0.074730 0.682633
v 0.534329 0.074730 0.841967
v 0.308153 0.074730 0.948397
v 0.062615 0.074730 0.995236
v -0.186857 0.074730 0.979541
v -0.424589 0.074730 0.902297
v -0.635642 0.074730 0.768359
v -0.806755 0.074730 0.586142
v -0.927177 0.074730 0.367095
v -0.989341 0.074730 0.124983
v -0.989341 0.074730 -0.124983
v -0.927177 0.074730 -0.367095
v -0.806755 0.074730 -0.586142
v -0.635642 0.074730 -0.768359
v -0.424589 0.074730 -0.902297
v -0.186857 0.074730 -0.979541
v 0.062615 0.074730 -0.995236
v 0.308153 0.074730 -0.948397
v 0.534329 0.074730 -0.841967
v 0.726930 0.074730 -0.682633
v 0.873856 0.074730 -0.480407
v 0.965875 0.074730 -0.247994
v 0.997204 -0.074730 0.000000
v 0.965875 -0.074730 0.247994
v 0.873856 -0.074730 0.480407
v 0.726930 -0.074730 0.682633
v 0.534329 -0.074730 0.841967
v 0.308153 -0.074730 0.948397
v 0.062615 -0.074730 0.995236
v -0.186857 -0.074730 0.979541
v -0.424589 -0.074730 0.902297
v -0.635642 -0.074730 0.768359
v -0.806755 -0.074730 0.586142
v -0.927177 -0.074730 0.367095
v -0.989341 -0.074730 0.124983
v -0.989341 -0.074730 -0.124983
v -0.927177 -0.074730 -0.367095
v -0.806755 -0.074730 -0.586142
v -0.635642 -0.074730 -0.768359
v -0.424589 -0.074730 -0.902297
v -0.186857 -0.074730 -0.979541
v 0.062615 -0.074730 -0.995236
v 0.308153 -0.074730 -0.948397
v 0.534329 -0.074730 -0.841967
v 0.726930 -0.074730 -0.682633
v 0.873856 -0.074730 -0.480407
v 0.965875 -0.074730 -0.247994
v 0.974928 -0.222521 0.000000
v 0.944299 -0.222521 0.242455
v 0.854336 -0.222521 0.469675
v 0.710692 -0.222521 0.667384
v 0.522392 -0.222521 0.823159
v 0.301269 -0.222521 0.927212
v 0.061216 -0.222521 0.973004
v -0.182683 -0.222521 0.957659
v -0.415104 -0.222521 0.882141
v -0.621442 -0.222521 0.751195
v -0.788733 -0.222521 0.573048
v -0.906465 -0.222521 0.358895
v -0.967240 -0.222521 0.122191
v -0.967240 -0.222521 -0.122191
v -0.906465 -0.222521 -0.358895
v -0.788733 -0.222521 -0.573048
v -0.621442 -0.222521 -0.751195
v -0.415104 -0.222521 -0.882141
v -0.182683 -0.222521 -0.957659
v 0.061216 -0.222521 -0.973004
v 0.301269 -0.222521 -0.927212
v 0.522392 -0.222521 -0.823159
v 0.710692 -0.222521 -0.667384
v 0.854336 -0.222521 -0.469675
v 0.944299 -0.222521 -0.242455
v 0.930874 -0.365341 0.000000
v 0.901629 -0.365341 0.231499
v 0.815731 -0.365341 0.448452
v 0.678578 -0.365341 0.637227
v 0.498787 -0.365341 0.785963
v 0.287656 -0.365341 0.885314
v 0.058450 -0.365341 0.929037
v -0.174428 -0.365341 0.914385
v -0.396347 -0.365341 0.842280
v -0.593361 -0.365341 0.717251
v -0.753093 -0.365341 0.547154
v -0.865505 -0.365341 0.342677
v -0.923534 -0.365341 0.116669
v -0.923534 -0.365341 -0.116669
v -0.865505 -0.365341 -0.342677
v -0.753093 -0.365341 -0.547154
v -0.593361 -0.365341 -0.717251
v -0.396347 -0.365341 -0.842280
v -0.174428 -0.365341 -0.914385
v 0.058450 -0.365341 -0.929037
v 0.287656 -0.365341 -0.885314
v 0.498787 -0.365341 -0.785963
v 0.678578 -0.365341 -0.637227
v 0.815731 -0.365341 -0.448452
v 0.901629 -0.365341 -0.231499
v 0.866025 -0.500000 0.000000
v 0.838818 -0.500000 0.215372
v 0.758904 -0.500000 0.417211
v 0.631305 -0.500000 0.592835
v 0.464040 -0.500000 0.731209
v 0.267617 -0.500000 0.823639
v 0.054378 -0.500000 0.864317
v -0.162277 -0.500000 0.850686
v -0.368736 -0.500000 0.783603
v -0.552025 -0.500000 0.667284
v -0.700629 -0.500000 0.509037
v -0.805210 -0.500000 0.318805
v -0.859197 -0.500000 0.108542
v -0.859197 -0.500000 -0.108542
v -0.805210 -0.500000 -0.318805
v -0.700629 -0.500000 -0.509037
v -0.552025 -0.500000 -0.667284
v -0.368736 -0.500000 -0.783603
v -0.162277 -0.500000 -0.850686
v 0.054378 -0.500000 -0.864317
v 0.267617 -0.500000 -0.823639
v 0.464040 -0.500000 -0.731209
v 0.631305 -0.500000 -0.592835
v 0.758904 -0.500000 -0.417211
v 0.838818 -0.500000 -0.215372
v 0.781831 -0.623490 0.000000
v 0.757269 -0.623490 0.194434
v 0.685124 -0.623490 0.376650
v 0.569931 -0.623490 0.535200
v 0.418926 -0.623490 0.660122
v 0.241599 -0.623490 0.743566
v 0.049092 -0.623490 0.780289
v -0.146501 -0.623490 0.767983
v -0.332888 -0.623490 0.707422
v -0.498358 -0.623490 0.602412
v -0.632515 -0.623490 0.459549
v -0.726929 -0.623490 0.287811
v -0.775667 -0.623490 0.097989
v -0.775667 -0.623490 -0.097989
v -0.726929 -0.623490 -0.287811
v -0.632515 -0.623490 -0.459549
v -0.498358 -0.623490 -0.602412
v -0.332888 -0.623490 -0.707422
v -0.146501 -0.623490 -0.767983
v 0.049092 -0.623490 -0.780289
v 0.241599 -0.623490 -0.743566
v 0.418926 -0.623490 -0.660122
v 0.569931 -0.623490 -0.535200
v 0.685124 -0.623490 -0.376650
v 0.757269 -0.623490 -0.194434
v 0.680173 -0.733052 0.000000
v 0.658804 -0.733052 0.169152
v 0.596040 -0.733052 0.327676
v 0.495825 -0.733052 0.465610
v 0.364455 -0.733052 0.574289
v 0.210185 -0.733052 0.646883
v 0.042708 -0.733052 0.678831
v -0.127452 -0.733052 0.668125
v -0.289603 -0.733052 0.615439
v -0.433558 -0.733052 0.524082
v -0.550271 -0.733052 0.399796
v -0.632409 -0.733052 0.250388
v -0.674809 -0.733052 0.085248
v -0.674809 -0.733052 -0.085248
v -0.632409 -0.733052 -0.250388
v -0.550271 -0.733052 -0.399796
v -0.433558 -0.733052 -0.524082
v -0.289603 -0.733052 -0.615439
v -0.127452 -0.733052 -0.668125
v 0.042708 -0.733052 -0.678831
v 0.210185 -0.733052 -0.646883
v 0.364455 -0.733052 -0.574289
v 0.495825 -0.733052 -0.465610
v 0.596040 -0.733052 -0.327676
v 0.658804 -0.733052 -0.169152
v 0.563320 -0.826239 0.000000
v 0.545622 -0.826239 0.140092
v 0.493641 -0.826239 0.271382
v 0.410643 -0.826239 0.385619
v 0.301842 -0.826239 0.475627
v 0.174075 -0.826239 0.535749
v 0.035371 -0.826239 0.562208
v -0.105556 -0.826239 0.553342
v -0.239850 -0.826239 0.509707
v -0.359074 -0.826239 0.434046
v -0.455736 -0.826239 0.331111
v -0.523762 -0.826239 0.207372
v -0.558878 -0.826239 0.070603
v -0.558878 -0.826239 -0.070603
v -0.523762 -0.826239 -0.207372
v -0.455736 -0.826239 -0.331111
v -0.359074 -0.826239 -0.434046
v -0.239850 -0.826239 -0.509707
v -0.105556 -0.826239 -0.553342
v 0.035371 -0.826239 -0.562208
v 0.174075 -0.826239 -0.535749
v 0.301842 -0.826239 -0.475627
v 0.410643 -0.826239 -0.385619
v 0.493641 -0.826239 -0.271382
v 0.545622 -0.826239 -0.140092
v 0.433884 -0.900969 0.000000
v 0.420252 -0.900969 0.107902
v 0.380215 -0.900969 0.209025
v 0.316288 -0.900969 0.297014
v 0.232487 -0.900969 0.366340
v 0.134077 -0.900969 0.412648
v 0.027244 -0.900969 0.433028
v -0.081302 -0.900969 0.426198
v -0.184739 -0.900969 0.392590
v -0.276568 -0.900969 0.334313
v -0.351019 -0.900969 0.255030
v -0.403415 -0.900969 0.159723
v -0.430462 -0.900969 0.054380
v -0.430462 -0.900969 -0.054380
v -0.403415 -0.900969 -0.159723
v -0.351019 -0.900969 -0.255030
v -0.276568 -0.900969 -0.334313
v -0.184739 -0.900969 -0.392590
v -0.081302 -0.900969 -0.426198
v 0.027244 -0.900969 -0.433028
v 0.134077 -0.900969 -0.412648
v 0.232487 -0.900969 -0.366340
v 0.316288 -0.900969 -0.297014
v 0.380215 -0.900969 -0.209025
v 0.420252 -0.900969 -0.107902
v 0.294755 -0.955573 0.000000
v 0.285495 -0.955573 0.073303
v 0.258296 -0.955573 0.141999
v 0.214867 -0.955573 0.201774
v 0.157938 -0.955573 0.248870
v 0.091084 -0.955573 0.280329
v 0.018508 -0.955573 0.294174
v -0.055232 -0.955573 0.289534
v -0.125501 -0.955573 0.266702
v -0.187884 -0.955573 0.227113
v -0.238462 -0.955573 0.173253
v -0.274056 -0.955573 0.108507
v -0.292431 -0.955573 0.036943
v -0.292431 -0.955573 -0.036943
v -0.274056 -0.955573 -0.108507
v -0.238462 -0.955573 -0.173253
v -0.187884 -0.955573 -0.227113
v -0.125501 -0.955573 -0.266702
v -0.055232 -0.955573 -0.289534
v 0.018508 -0.955573 -0.294174
v 0.091084 -0.955573 -0.280329
v 0.157938 -0.955573 -0.248870
v 0.214867 -0.955573 -0.201774
v 0.258296 -0.955573 -0.141999
v 0.285495 -0.955573 -0.073303
v 0.149042 -0.988831 0.000000
v 0.144360 -0.988831 0.037065
v 0.130607 -0.988831 0.071802
v 0.108647 -0.988831 0.102026
v 0.079861 -0.988831 0.125841
v 0.046057 -0.988831 0.141748
v 0.009358 -0.988831 0.148748
v -0.027928 -0.988831 0.146402
v -0.063459 -0.988831 0.134857
v -0.095003 -0.988831 0.114839
v -0.120578 -0.988831 0.087605
v -0.138576 -0.988831 0.054866
v -0.147867 -0.988831 0.018680
v -0.147867 -0.988831 -0.018680
v -0.138576 -0.988831 -0.054866
v -0.120578 -0.988831 -0.087605
v -0.095003 -0.988831 -0.114839
v -0.063459 -0.988831 -0.134857
v -0.027928 -0.988831 -0.146402
v 0.009358 -0.988831 -0.148748
v 0.046057 -0.988831 -0.141748
v 0.079861 -0.988831 -0.125841
v 0.108647 -0.988831 -0.102026
v 0.130607 -0.988831 -0.071802
v 0.144360 -0.988831 -0.037065
v 0.000000 -1.000000 0.000000
f 1 2 3
f 1 3 4
f 1 4 5
f 1 5 6
f 1 6 7
f 1 7 8
f 1 8 9
f 1 9 10
f 1 10 11
f 1 11 12
f 1 12 13
f 1 13 14
f 1 14 15
f 1 15 16
f 1 16 17
f 1 17 18
f 1 18 19
f 1 19 20
f 1 20 21
f 1 21 22
f 1 22 23
f 1 23 24
f 1 24 25
f 1 25 26
f 1 26 2
f 2 27 3
f 3 27 28
f 3 28 4
f 4 28 29
f 4 29 5
f 5 29 30
f 5 30 6
f 6 30 31
f 6 31 7
f 7 31 32
f 7 32 8
f 8 32 33
f 8 33 9
f 9 33 34
f 9 34 10
f 10 34 35
f 10 35 11
f 11 35 36
f 11 36 12
f 12 36 37
f 12 37 13
f 13 37 38
f 13 38 14
f 14 38 39
f 14 39 15
f 15 39 40
f 15 40 16
f 16 40 41
f 16 41 17
f 17 41 42
f 17 42 18
f 18 42 43
f 18 43 19
f 19 43 44
f 19 44 20
f 20 44 45
f 20 45 21
f 21 45 46
f 21 46 22
f 22 46 47
f 22 47 23
f 23 47 48
f 23 48 24
f 24 48 49
f 24 49 25
f 25 49 50
f 25 50 26
f 26 50 51
f 26 51 2
f 2 51 27
f 27 52 28
f 28 52 53
f 28 53 29
f 29 53 54
f 29 54 30
f 30 54 55
f 30 55 31
f 31 55 56
f 31 56 32
f 32 56 57
f 32 57 33
f 33 57 58
f 33 58 34
f 34 58 59
f 34 59 35
f 35 59 60
f 35 60 36
f 36 60 61
f 36 61 37
f 37 61 62
f 37 62 38
f 38 62 63
f 38 63 39
f 39 63 64
f 39 64 40
f 40 64 65
f 40 65 41
f 41 65 66
f 41 66 42
f 42 66 67
f 42 67 43
f 43 67 68
f 43 68 44
f 44 68 69
f 44 69 45
f 45 69 70
f 45 70 46
f 46 70 71
f 46 71 47
f 47 71 72
f 47 72 48
f 48 72 73
f 48 73 49
f 49 73 74
f 49 74 50
f 50 74 75
f 50 75 51
f 51 75 76
f 51 76 27
f 27 76 52
f 52 77 53
f 53 77 78
f 53 78 54
f 54 78 79
f 54 79 55
f 55 79 80
f 55 80 56
f 56 80 81
f 56 81 57
f 57 81 82
f 57 82 58
f 58 82 83
f 58 83 59
f 59 83 84
f 59 84 60
f 60 84 85
f 60 85 61
f 61 85 86
f 61 86 62
f 62 86 87
f 62 87 63
f 63 87 88
f 63 88 64
f 64 88 89
f 64 89 65
f 65 89 90
f 65 90 66
f 66 90 91
f 66 91 67
f 67 91 92
f 67 92 68
f 68 92 93
f 68 93 69
f 69 93 94
f 69 94 70
f 70 94 95
f 70 95 71
f 71 95 96
f 71 96 72
f 72 96 97
f 72 97 73
f 73 97 98
f 73 98 74
f 74 98 99
f 74 99 75
f 75 99 100
f 75 100 76
f 76 100 101
f 76 101 52
f 52 101 77
f 77 102 78
f 78 102 103
f 78 103 79
f 79 103 104
f 79 104 80
f 80 104 105
f 80 105 81
f 81 105 106
f 81 106 82
f 82 106 107
f 82 107 83
f 83 107 108
f 83 108 84
f 84 108 109
f 84 109 85
f 85 109 110
f 85 110 86
f 86 110 111
f 86 111 87
f 87 111 112
f 87 112 88
f 88 112 113
f 88 113 89
f 89 113 114
f 89 114 90
f 90 114 115
f 90 115 91
f 91 115 116
f 91 116 92
f 92 116 117
f 92 117 93
f 93 117 118
f 93 118 94
f 94 118 119
f 94 119 95
f 95 119 120
f 95 120 96
f 96 120 121
f 96 121 97
f 97 121 122
f 97 122 98
f 98 122 123
f 98 123 99
f 99 123 124
f 99 124 100
f 100 124 125
f 100 125 101
f 101 125 126
f 101 126 77
f 77 126 102
f 102 127 103
f 103 127 128
f 103 128 104
f 104 128 129
f 104 129 105
f 105 129 130
f 105 130 106
f 106 130 131
f 106 131 107
f 107 131 132
f 107 132 108
f 108 132 133
f 108 133 109
f 109 133 134
f 109 134 110
f 110 134 135
f 110 135 111
f 111 135 136
f 111 136 112
f 112 136 137
f 112 137 113
f 113 137 138
f 113 138 114
f 114 138 139
f 114 139 115
f 115 139 140
f 115 140 116
f 116 140 141
f 116 141 117
f 117 141 142
f 117 142 118
f 118 142 143
f 118 143 119
f 119 143 144
f 119 144 120
f 120 144 145
f 120 145 121
f 121 145 146
f 121 146 122
f 122 146 147
f 122 147 123
f 123 147 148
f 123 148 124
f 124 148 149
f 124 149 125
f 125 149 150
f 125 150 126
f 126 150 151
f 126 151 102
f 102 151 127
f 127 152 128
f 128 152 153
f 128 153 129
f 129 153 154
f 129 154 130
f 130 154 155
f 130 155 131
f 131 155 156
f 131 156 132
f 132 156 157
f 132 157 133
f 133 157 158
f 133 158 134
f 134 158 159
f 134 159 135
f 135 159 160
f 135 160 136
f 136 160 161
f 136 161 137
f 137 161 162
f 137 162 138
f 138 162 163
f 138 163 139
f 139 163 164
f 139 164 140
f 140 164 165
f 140 165 141
f 141 165 166
f 141 166 142
f 142 166 167
f 142 167 143
f 143 167 168
f 143 168 144
f 144 168 169
f 144 169 145
f 145 169 170
f 145 170 146
f 146 170 171
f 146 171 147
f 147 171 172
f 147 172 148
f 148 172 173
f 148 173 149
f 149 173 174
f 149 174 150
f 150 174 175
f 150 175 151
f 151 175 176
f 151 176 127
f 127 176 152
f 152 177 153
f 153 177 178
f 153 178 154
f 154 178 179
f 154 179 155
f 155 179 180
f 155 180 156
f 156 180 181
f 156 181 157
f 157 181 182
f 157 182 158
f 158 182 183
f 158 183 159
f 159 183 184
f 159 184 160
f 160 184 185
f 160 185 161
f 161 185 186
f 161 186 162
f 162 186 187
f 162 187 163
f 163 187 188
f 163 188 164
f 164 188 189
f 164 189 165
f 165 189 190
f 165 190 166
f 166 190 191
f 166 191 167
f 167 191 192
f 167 192 168
f 168 192 193
f 168 193 169
f 169 193 194
f 169 194 170
f 170 194 195
f 170 195 171
f 171 195 196
f 171 196 172
f 172 196 197
f 172 197 173
f 173 197 198
f 173 198 174
f 174 198 199
f 174 199 175
f 175 199 200
f 175 200 176
f 176 200 201
f 176 201 152
f 152 201 177
f 177 202 178
f 178 202 203
f 178 203 179
f 179 203 204
f 179 204 180
f 180 204 205
f 180 205 181
f 181 205 206
f 181 206 182
f 182 206 207
f 182 207 183
f 183 207 208
f 183 208 184
f 184 208 209
f 184 209 185
f 185 209 210
f 185 210 186
f 186 210 211
f 186 211 187
f 187 211 212
f 187 212 188
f 188 212 213
f 188 213 189
f 189 213 214
f 189 214 190
f 190 214 215
f 190 215 191
f 191 215 216
f 191 216 192
f 192 216 217
f 192 217 193
f 193 217 218
f 193 218 194
f 194 218 219
f 194 219 195
f 195 219 220
f 195 220 196
f 196 220 221
f 196 221 197
f 197 221 222
f 197 222 198
f 198 222 223
f 198 223 199
f 199 223 224
f 199 224 200
f 200 224 225
f 200 225 201
f 201 225 226
f 201 226 177
f 177 226 202
f 202 227 203
f 203 227 228
f 203 228 204
f 204 228 229
f 204 229 205
f 205 229 230
f 205 230 206
f 206 230 231
f 206 231 207
f 207 231 232
f 207 232 208
f 208 232 233
f 208 233 209
f 209 233 234
f 209 234 210
f 210 234 235
f 210 235 211
f 211 235 236
f 211 236 212
f 212 236 237
f 212 237 213
f 213 237 238
f 213 238 214
f 214 238 239
f 214 239 215
f 215 239 240
f 215 240 216
f 216 240 241
f 216 241 217
f 217 241 242
f 217 242 218
f 218 242 243
f 218 243 219
f 219 243 244
f 219 244 220
f 220 244 245
f 220 245 221
f 221 245 246
f 221 246 222
f 222 246 247
f 222 247 223
f 223 247 248
f 223 248 224
f 224 248 249
f 224 249 225
f 225 249 250
f 225 250 226
f 226 250 251
f 226 251 202
f 202 251 227
f 227 252 228
f 228 252 253
f 228 253 229
f 229 253 254
f 229 254 230
f 230 254 255
f 230 255 231
f 231 255 256
f 231 256 232
f 232 256 257
f 232 257 233
f 233 257 258
f 233 258 234
f 234 258 259
f 234 259 235
f 235 259 260
f 235 260 236
f 236 260 261
f 236 261 237
f 237 261 262
f 237 262 238
f 238 262 263
f 238 263 239
f 239 263 264
f 239 264 240
f 240 264 265
f 240 265 241
f 241 265 266
f 241 266 242
f 242 266 267
f 242 267 243
f 243 267 268
f 243 268 244
f 244 268 269
f 244 269 245
f 245 269 270
f 245 270 246
f 246 270 271
f 246 271 247
f 247 271 272
f 247 272 248
f 248 272 273
f 248 273 249
f 249 273 274
f 249 274 250
f 250 274 275
f 250 275 251
f 251 275 276
f 251 276 227
f 227 276 252
f 252 277 253
f 253 277 278
f 253 278 254
f 254 278 279
f 254 279 255
f 255 279 280
f 255 280 256
f 256 280 281
f 256 281 257
f 257 281 282
f 257 282 258
f 258 282 283
f 258 283 259
f 259 283 284
f 259 284 260
f 260 284 285
f 260 285 261
f 261 285 286
f 261 286 262
f 262 286 287
f 262 287 263
f 263 287 288
f 263 288 264
f 264 288 289
f 264 289 265
f 265 289 290
f 265 290 266
f 266 290 291
f 266 291 267
f 267 291 292
f 267 292 268
f 268 292 293
f 268 293 269
f 269 293 294
f 269 294 270
f 270 294 295
f 270 295 271
f 271 295 296
f 271 296 272
f 272 296 297
f 272 297 273
f 273 297 298
f 273 298 274
f 274 298 299
f 274 299 275
f 275 299 300
f 275 300 276
f 276 300 301
f 276 301 252
f 252 301 277
f 277 302 278
f 278 302 303
f 278 303 279
f 279 303 304
f 279 304 280
f 280 304 305
f 280 305 281
f 281 305 306
f 281 306 282
f 282 306 307
f 282 307 283
f 283 307 308
f 283 308 284
f 284 308 309
f 284 309 285
f 285 309 310
f 285 310 286
f 286 310 311
f 286 311 287
f 287 311 312
f 287 312 288
f 288 312 313
f 288 313 289
f 289 313 314
f 289 314 290
f 290 314 315
f 290 315 291
f 291 315 316
f 291 316 292
f 292 316 317
f 292 317 293
f 293 317 318
f 293 318 294
f 294 318 319
f 294 319 295
f 295 319 320
f 295 320 296
f 296 320 321
f 296 321 297
f 297 321 322
f 297 322 298
f 298 322 323
f 298 323 299
f 299 323 324
f 299 324 300
f 300 324 325
f 300 325 301
f 301 325 326
f 301 326 277
f 277 326 302
f 302 327 303
f 303 327 328
f 303 328 304
f 304 328 329
f 304 329 305
f 305 329 330
f 305 330 306
f 306 330 331
f 306 331 307
f 307 331 332
f 307 332 308
f 308 332 333
f 308 333 309
f 309 333 334
f 309 334 310
f 310 334 335
f 310 335 311
f 311 335 336
f 311 336 312
f 312 336 337
f 312 337 313
f 313 337 338
f 313 338 314
f 314 338 339
f 314 339 315
f 315 339 340
f 315 340 316
f 316 340 341
f 316 341 317
f 317 341 342
f 317 342 318
f 318 342 343
f 318 343 319
f 319 343 344
f 319 344 320
f 320 344 345
f 320 345 321
f 321 345 346
f 321 346 322
f 322 346 347
f 322 347 323
f 323 347 348
f 323 348 324
f 324 348 349
f 324 349 325
f 325 349 350
f 325 350 326
f 326 350 351
f 326 351 302
f 302 351 327
f 327 352 328
f 328 352 353
f 328 353 329
f 329 353 354
f 329 354 330
f 330 354 355
f 330 355 331
f 331 355 356
f 331 356 332
f 332 356 357
f 332 357 333
f 333 357 358
f 333 358 334
f 334 358 359
f 334 359 335
f 335 359 360
f 335 360 336
f 336 360 361
f 336 361 337
f 337 361 362
f 337 362 338
f 338 362 363
f 338 363 339
f 339 363 364
f 339 364 340
f 340 364 365
f 340 365 341
f 341 365 366
f 341 366 342
f 342 366 367
f 342 367 343
f 343 367 368
f 343 368 344
f 344 368 369
f 344 369 345
f 345 369 370
f 345 370 346
f 346 370 371
f 346 371 347
f 347 371 372
f 347 372 348
f 348 372 373
f 348 373 349
f 349 373 374
f 349 374 350
f 350 374 375
f 350 375 351
f 351 375 376
f 351 376 327
f 327 376 352
f 352 377 353
f 353 377 378
f 353 378 354
f 354 378 379
f 354 379 355
f 355 379 380
f 355 380 356
f 356 380 381
f 356 381 357
f 357 381 382
f 357 382 358
f 358 382 383
f 358 383 359
f 359 383 384
f 359 384 360
f 360 384 385
f 360 385 361
f 361 385 386
f 361 386 362
f 362 386 387
f 362 387 363
f 363 387 388
f 363 388 364
f 364 388 389
f 364 389 365
f 365 389 390
f 365 390 366
f 366 390 391
f 366 391 367
f 367 391 392
f 367 392 368
f 368 392 393
f 368 393 369
f 369 393 394
f 369 394 370
f 370 394 395
f 370 395 371
f 371 395 396
f 371 396 372
f 372 396 397
f 372 397 373
f 373 397 398
f 373 398 374
f 374 398 399
f 374 399 375
f 375 399 400
f 375 400 376
f 376 400 401
f 376 401 352
f 352 401 377
f 377 402 378
f 378 402 403
f 378 403 379
f 379 403 404
f 379 404 380
f 380 404 405
f 380 405 381
f 381 405 406
f 381 406 382
f 382 406 407
f 382 407 383
f 383 407 408
f 383 408 384
f 384 408 409
f 384 409 385
f 385 409 410
f 385 410 386
f 386 410 411
f 386 411 387
f 387 411 412
f 387 412 388
f 388 412 413
f 388 413 389
f 389 413 414
f 389 414 390
f 390 414 415
f 390 415 391
f 391 415 416
f 391 416 392
f 392 416 417
f 392 417 393
f 393 417 418
f 393 418 394
f 394 418 419
f 394 419 395
f 395 419 420
f 395 420 396
f 396 420 421
f 396 421 397
f 397 421 422
f 397 422 398
f 398 422 423
f 398 423 399
f 399 423 424
f 399 424 400
f 400 424 425
f 400 425 401
f 401 425 426
f 401 426 377
f 377 426 402
f 402 427 403
f 403 427 428
f 403 428 404
f 404 428 429
f 404 429 405
f 405 429 430
f 405 430 406
f 406 430 431
f 406 431 407
f 407 431 432
f 407 432 408
f 408 432 433
f 408 433 409
f 409 433 434
f 409 434 410
f 410 434 435
f 410 435 411
f 411 435 436
f 411 436 412
f 412 436 437
f 412 437 413
f 413 437 438
f 413 438 414
f 414 438 439
f 414 439 415
f 415 439 440
f 415 440 416
f 416 440 441
f 416 441 417
f 417 441 442
f 417 442 418
f 418 442 443
f 418 443 419
f 419 443 444
f 419 444 420
f 420 444 445
f 420 445 421
f 421 445 446
f 421 446 422
f 422 446 447
f 422 447 423
f 423 447 448
f 423 448 424
f 424 448 449
f 424 449 425
f 425 449 450
f 425 450 426
f 426 450 451
f 426 451 402
f 402 451 427
f 427 452 428
f 428 452 453
f 428 453 429
f 429 453 454
f 429 454 430
f 430 454 455
f 430 455 431
f 431 455 456
f 431 456 432
f 432 456 457
f 432 457 433
f 433 457 458
f 433 458 434
f 434 458 459
f 434 459 435
f 435 459 460
f 435 460 436
f 436 460 461
f 436 461 437
f 437 461 462
f 437 462 438
f 438 462 463
f 438 463 439
f 439 463 464
f 439 464 440
f 440 464 465
f 440 465 441
f 441 465 466
f 441 466 442
f 442 466 467
f 442 467 443
f 443 467 468
f 443 468 444
f 444 468 469
f 444 469 445
f 445 469 470
f 445 470 446
f 446 470 471
f 446 471 447
f 447 471 472
f 447 472 448
f 448 472 473
f 448 473 449
f 449 473 474
f 449 474 450
f 450 474 475
f 450 475 451
f 451 475 476
f 451 476 427
f 427 476 452
f 452 477 453
f 453 477 478
f 453 478 454
f 454 478 479
f 454 479 455
f 455 479 480
f 455 480 456
f 456 480 481
f 456 481 457
f 457 481 482
f 457 482 458
f 458 482 483
f 458 483 459
f 459 483 484
f 459 484 460
f 460 484 485
f 460 485 461
f 461 485 486
f 461 486 462
f 462 486 487
f 462 487 463
f 463 487 488
f 463 488 464
f 464 488 489
f 464 489 465
f 465 489 490
f 465 490 466
f 466 490 491
f 466 491 467
f 467 491 492
f 467 492 468
f 468 492 493
f 468 493 469
f 469 493 494
f 469 494 470
f 470 494 495
f 470 495 471
f 471 495 496
f 471 496 472
f 472 496 497
f 472 497 473
f 473 497 498
f 473 498 474
f 474 498 499
f 474 499 475
f 475 499 500
f 475 500 476
f 476 500 501
f 476 501 452
f 452 501 477
f 477 502 478
f 478 502 479
f 479 502 480
f 480 502 481
f 481 502 482
f 482 502 483
f 483 502 484
f 484 502 485
f 485 502 486
f 486 502 487
f 487 502 488
f 488 502 489
f 489 502 490
f 490 502 491
f 491 502 492
f 492 502 493
f 493 502 494
f 494 502 495
f 495 502 496
f 496 502 497
f 497 502 498
f 498 502 499
f 499 502 500
f 500 502 501
f 501 502 477
